<svg version="1.1" id="Layer_1" xmlns="http://www.w3.org/2000/svg" xmlns:xlink="http://www.w3.org/1999/xlink" x="0px" y="0px"
	 width="100%" viewBox="0 0 480 480" enable-background="new 0 0 480 480" xml:space="preserve">
<path fill="#000000" opacity="1.000000" stroke="none" 
	d="
M254.000000,481.000000 
	C169.355240,481.000000 85.210495,481.000000 1.032870,481.000000 
	C1.032870,321.063568 1.032870,161.127136 1.032870,1.095354 
	C160.894730,1.095354 320.789520,1.095354 480.842163,1.095354 
	C480.842163,160.999878 480.842163,320.999908 480.842163,481.000000 
	C405.460510,481.000000 329.980255,481.000000 254.000000,481.000000 
M219.205841,465.086182 
	C220.472351,465.390015 221.744247,465.977966 223.004547,465.954102 
	C236.768112,465.693359 250.537704,465.525665 264.290070,464.956085 
	C279.551453,464.324005 294.228180,460.544922 308.778717,456.107086 
	C331.398651,449.208130 352.094910,438.522400 371.454132,425.062469 
	C388.869476,412.954071 404.071747,398.391998 417.304108,381.968384 
	C431.153015,364.779602 442.094208,345.693512 450.403534,325.174347 
	C459.032806,303.865021 464.465607,281.662476 465.753387,258.812683 
	C466.829834,239.712616 466.738861,220.479935 463.081085,201.447433 
	C459.753845,184.134903 455.195312,167.227158 447.969543,151.158310 
	C435.303467,122.991035 418.111725,98.087624 395.505676,76.738258 
	C378.412659,60.595505 359.308502,47.597282 338.428772,37.339031 
	C313.659332,25.169725 287.120697,18.041235 259.633484,16.253986 
	C236.602417,14.756481 213.481400,15.654324 190.735504,20.953939 
	C163.650436,27.264549 138.470642,38.066414 115.424744,53.412220 
	C97.485817,65.357399 81.706223,79.907509 67.789024,96.534302 
	C55.865856,110.778839 45.903118,126.227531 37.767788,142.792358 
	C25.514009,167.743057 17.941011,194.308762 16.340462,221.977829 
	C15.284234,240.237091 15.947967,258.881744 18.504267,276.977692 
	C20.730703,292.738525 25.461895,308.457733 31.338152,323.304016 
	C37.346333,338.483612 45.205379,353.134949 53.880341,367.000122 
	C63.538536,382.436798 75.680222,396.188690 89.647301,408.058228 
	C98.127983,415.265320 106.527473,422.741791 115.814583,428.790375 
	C135.912277,441.879822 157.294174,452.645721 180.791061,458.230682 
	C193.128159,461.163055 205.774399,462.794769 219.205841,465.086182 
z"/>
<path fill="#1E88E5" opacity="1.000000" stroke="none" 
	d="
M218.743439,465.049988 
	C205.774399,462.794769 193.128159,461.163055 180.791061,458.230682 
	C157.294174,452.645721 135.912277,441.879822 115.814583,428.790375 
	C106.527473,422.741791 98.127983,415.265320 89.647301,408.058228 
	C75.680222,396.188690 63.538536,382.436798 53.880341,367.000122 
	C45.205379,353.134949 37.346333,338.483612 31.338152,323.304016 
	C25.461895,308.457733 20.730703,292.738525 18.504267,276.977692 
	C15.947967,258.881744 15.284234,240.237091 16.340462,221.977829 
	C17.941011,194.308762 25.514009,167.743057 37.767788,142.792358 
	C45.903118,126.227531 55.865856,110.778839 67.789024,96.534302 
	C81.706223,79.907509 97.485817,65.357399 115.424744,53.412220 
	C138.470642,38.066414 163.650436,27.264549 190.735504,20.953939 
	C213.481400,15.654324 236.602417,14.756481 259.633484,16.253986 
	C287.120697,18.041235 313.659332,25.169725 338.428772,37.339031 
	C359.308502,47.597282 378.412659,60.595505 395.505676,76.738258 
	C418.111725,98.087624 435.303467,122.991035 447.969543,151.158310 
	C455.195312,167.227158 459.753845,184.134903 463.081085,201.447433 
	C466.738861,220.479935 466.829834,239.712616 465.753387,258.812683 
	C464.465607,281.662476 459.032806,303.865021 450.403534,325.174347 
	C442.094208,345.693512 431.153015,364.779602 417.304108,381.968384 
	C404.071747,398.391998 388.869476,412.954071 371.454132,425.062469 
	C352.094910,438.522400 331.398651,449.208130 308.778717,456.107086 
	C294.228180,460.544922 279.551453,464.324005 264.290070,464.956085 
	C250.537704,465.525665 236.768112,465.693359 223.004547,465.954102 
	C221.744247,465.977966 220.472351,465.390015 218.743439,465.049988 
M260.959473,305.191833 
	C257.850220,311.721588 252.264893,314.434174 245.489380,315.837891 
	C235.712067,317.863556 222.877853,313.151398 220.232819,305.164429 
	C218.006271,298.441101 217.044510,291.238861 216.091125,284.171936 
	C215.242020,277.878082 215.171906,271.479095 214.766663,265.259094 
	C200.618439,265.259094 187.022003,265.259094 172.623413,265.259094 
	C173.098801,271.104828 173.191696,276.698425 174.074982,282.164307 
	C175.811371,292.909241 177.339981,303.756592 180.149323,314.241455 
	C183.455292,326.579834 190.491959,336.765198 201.872833,343.316681 
	C210.357086,348.200714 219.651138,350.017700 229.347092,351.180573 
	C244.140808,352.954803 258.446442,351.988708 272.482239,347.004852 
	C288.062286,341.472656 298.745056,330.415710 303.537872,315.149780 
	C307.010437,304.089264 308.631836,292.043091 308.766449,280.409668 
	C309.323334,232.280746 309.000000,184.141632 309.000000,136.006256 
	C309.000000,134.083694 309.000000,132.161133 309.000000,130.398300 
	C293.578156,130.398300 278.862030,130.398300 264.000000,130.398300 
	C264.000000,132.790619 264.000000,134.785202 264.000000,136.779800 
	C264.000000,187.913223 264.075623,239.046951 263.875061,290.179596 
	C263.856415,294.933228 262.086609,299.679962 260.959473,305.191833 
z"/>
<path fill="#000000" opacity="1.000000" stroke="none" 
	d="
M261.044708,304.810852 
	C262.086609,299.679962 263.856415,294.933228 263.875061,290.179596 
	C264.075623,239.046951 264.000000,187.913223 264.000000,136.779800 
	C264.000000,134.785202 264.000000,132.790619 264.000000,130.398300 
	C278.862030,130.398300 293.578156,130.398300 309.000000,130.398300 
	C309.000000,132.161133 309.000000,134.083694 309.000000,136.006256 
	C309.000000,184.141632 309.323334,232.280746 308.766449,280.409668 
	C308.631836,292.043091 307.010437,304.089264 303.537872,315.149780 
	C298.745056,330.415710 288.062286,341.472656 272.482239,347.004852 
	C258.446442,351.988708 244.140808,352.954803 229.347092,351.180573 
	C219.651138,350.017700 210.357086,348.200714 201.872833,343.316681 
	C190.491959,336.765198 183.455292,326.579834 180.149323,314.241455 
	C177.339981,303.756592 175.811371,292.909241 174.074982,282.164307 
	C173.191696,276.698425 173.098801,271.104828 172.623413,265.259094 
	C187.022003,265.259094 200.618439,265.259094 214.766663,265.259094 
	C215.171906,271.479095 215.242020,277.878082 216.091125,284.171936 
	C217.044510,291.238861 218.006271,298.441101 220.232819,305.164429 
	C222.877853,313.151398 235.712067,317.863556 245.489380,315.837891 
	C252.264893,314.434174 257.850220,311.721588 261.044708,304.810852 
z"/>
</svg>